<?xml version="1.0" encoding="iso-8859-1"?>
<!-- Uploaded to: SVG Repo, www.svgrepo.com, Generator: SVG Repo Mixer Tools -->
<!DOCTYPE svg PUBLIC "-//W3C//DTD SVG 1.1//EN" "http://www.w3.org/Graphics/SVG/1.1/DTD/svg11.dtd">
<svg width="35" height="35" viewBox="0 0 35 35" xmlns="http://www.w3.org/2000/svg">

<!-- <g transform="translate(-40,-20) scale(0.30, 0.30)">
  <path d="M283.801,137.696L217.393,71.29c-2.145-2.146-5.371-2.788-8.173-1.626c-2.803,1.161-4.63,3.896-4.63,6.929v26.155h-47.943
    c-4.143,0-7.5,3.358-7.5,7.5v65.503c0,4.142,3.357,7.5,7.5,7.5h47.943l0.002,26.155c0,3.033,1.827,5.768,4.63,6.929
    c0.928,0.384,1.902,0.571,2.868,0.571c1.952,0,3.87-0.762,5.306-2.197l66.406-66.406c1.406-1.406,2.196-3.314,2.196-5.303
    S285.208,139.102,283.801,137.696z M219.591,191.3l-0.001-15.55c0-4.142-3.358-7.5-7.5-7.5h-47.943v-50.503h47.943
    c4.143,0,7.5-3.358,7.5-7.5V94.7l48.302,48.3L219.591,191.3z"
    fill="#00a8eb" stroke="#000000" stroke-width="4"/>
</g> -->
<!-- <g transform="translate(5,-20) scale(0.30, 0.30)">
	<path d="M129.352,102.748H81.408l-0.002-26.155c0-3.033-1.827-5.768-4.63-6.929c-2.804-1.161-6.027-0.519-8.174,1.626
		L2.196,137.696C0.79,139.102,0,141.01,0,142.999s0.79,3.897,2.197,5.303l66.408,66.406c1.435,1.435,3.353,2.197,5.305,2.197
		c0.966,0,1.94-0.187,2.868-0.571c2.803-1.161,4.63-3.896,4.63-6.929v-26.155h47.943c4.143,0,7.5-3.358,7.5-7.5v-65.503
		C136.852,106.106,133.494,102.748,129.352,102.748z M121.852,168.251H73.908c-4.143,0-7.5,3.358-7.5,7.5v15.548l-48.302-48.3
		l48.301-48.301l0.001,15.55c0,4.142,3.358,7.5,7.5,7.5h47.943V168.251z"
		fill="#00a8eb" stroke="#000000" stroke-width="4"/>
</g> -->
<g transform="translate(3,2) scale(0.06, 0.06)">

	<path d="M319.654,17.509C317.806,7.37,308.973,0.002,298.667,0.002C134.431,0.002,0,113.753,0,256.002s134.431,256,298.667,256
		c10.306,0,19.139-7.368,20.987-17.507l2.155-11.819c26.024-153.137,26.035-306.534,0.018-453.247L319.654,17.509z
			M280.869,468.828C147.171,461.181,42.667,368.033,42.667,256.002c0-112.045,104.529-205.201,238.249-212.829
		C304.607,180.973,304.596,325.021,280.869,468.828z"
		 fill="#F7F5F1" stroke="#bbbbbb" stroke-width="10"/>
	<path d="M373.024,146.295l106.667,64c10.103,6.062,23.207,2.786,29.269-7.317c6.062-10.103,2.786-23.207-7.317-29.269
		l-106.667-64c-10.103-6.062-23.207-2.786-29.269,7.317C359.645,127.129,362.921,140.233,373.024,146.295z"
		 fill="#F7F5F1" stroke="#bbbbbb" stroke-width="10"/>
	<path d="M501.643,301.708l-106.667-64c-10.103-6.062-23.207-2.786-29.269,7.317c-6.062,10.103-2.786,23.207,7.317,29.269
		l106.667,64c10.103,6.062,23.207,2.786,29.269-7.317C515.022,320.874,511.746,307.77,501.643,301.708z"
		 fill="#F7F5F1" stroke="#bbbbbb" stroke-width="10"/>
	<path d="M501.643,429.708l-106.667-64c-10.103-6.062-23.207-2.786-29.269,7.317c-6.062,10.103-2.786,23.207,7.317,29.269
		l106.667,64c10.103,6.062,23.207,2.786,29.269-7.317C515.022,448.875,511.746,435.77,501.643,429.708z"
		 fill="#F7F5F1" stroke="#bbbbbb" stroke-width="10"/>

</g>
<!-- 
<g transform="translate(3,2) scale(0.06, 0.06)">
			<path d="M319.654,17.507C317.806,7.368,308.973,0,298.667,0C134.431,0,0,113.752,0,256s134.431,256,298.667,256
				c10.306,0,19.139-7.368,20.987-17.507l2.155-11.819c26.024-153.137,26.035-306.534,0.018-453.247L319.654,17.507z
				 M280.869,468.826C147.171,461.179,42.667,368.032,42.667,256c0-112.045,104.529-205.201,238.249-212.829
				C304.607,180.972,304.596,325.019,280.869,468.826z"
                fill="#F7F5F1" stroke="#bbbbbb" stroke-width="10"/>
			<path d="M405.333,85.333h85.333C502.449,85.333,512,75.782,512,64c0-11.782-9.551-21.333-21.333-21.333h-85.333
				C393.551,42.667,384,52.218,384,64C384,75.782,393.551,85.333,405.333,85.333z"
                fill="#F7F5F1" stroke="#bbbbbb" stroke-width="10"/>
			<path d="M490.667,170.667h-85.333C393.551,170.667,384,180.218,384,192s9.551,21.333,21.333,21.333h85.333
				c11.782,0,21.333-9.551,21.333-21.333S502.449,170.667,490.667,170.667z"
                fill="#F7F5F1" stroke="#bbbbbb" stroke-width="10"/>
			<path d="M490.667,298.667h-85.333C393.551,298.667,384,308.218,384,320s9.551,21.333,21.333,21.333h85.333
				c11.782,0,21.333-9.551,21.333-21.333S502.449,298.667,490.667,298.667z"
                fill="#F7F5F1" stroke="#bbbbbb" stroke-width="10"/>
			<path d="M490.667,426.667h-85.333C393.551,426.667,384,436.218,384,448c0,11.782,9.551,21.333,21.333,21.333h85.333
				c11.782,0,21.333-9.551,21.333-21.333C512,436.218,502.449,426.667,490.667,426.667z"
                fill="#F7F5F1" stroke="#bbbbbb" stroke-width="10"/>
		</g> -->
</svg>